<svg version="1.1" xmlns="http://www.w3.org/2000/svg" viewBox="0 0 239.99993896484375 239.99998474121094" width="719.9998168945312" height="719.9999542236328" filter="invert(93%) hue-rotate(180deg)">
  <!-- svg-source:excalidraw -->
  
  <defs>
    <style class="style-fonts">
      
    </style>
    
  </defs>
  <g stroke-linecap="round" transform="translate(10 10) rotate(0 109.99996948242188 109.99999237060547)"><path d="M220 110 C220 113.38, 219.84 116.78, 219.53 120.15 C219.22 123.52, 218.75 126.89, 218.13 130.21 C217.51 133.54, 216.73 136.85, 215.8 140.1 C214.87 143.36, 213.79 146.58, 212.57 149.74 C211.35 152.89, 209.98 156, 208.47 159.03 C206.96 162.06, 205.3 165.03, 203.52 167.91 C201.74 170.78, 199.82 173.59, 197.78 176.29 C195.74 178.99, 193.57 181.61, 191.29 184.11 C189.01 186.61, 186.61 189.01, 184.11 191.29 C181.61 193.57, 178.99 195.74, 176.29 197.78 C173.59 199.82, 170.78 201.74, 167.91 203.52 C165.03 205.3, 162.06 206.96, 159.03 208.47 C156 209.98, 152.89 211.35, 149.74 212.57 C146.58 213.79, 143.36 214.87, 140.1 215.8 C136.85 216.73, 133.54 217.51, 130.21 218.13 C126.89 218.75, 123.52 219.22, 120.15 219.53 C116.78 219.84, 113.38 220, 110 220 C106.62 220, 103.22 219.84, 99.85 219.53 C96.48 219.22, 93.11 218.75, 89.79 218.13 C86.46 217.51, 83.15 216.73, 79.9 215.8 C76.64 214.87, 73.42 213.79, 70.26 212.57 C67.11 211.35, 64 209.98, 60.97 208.47 C57.94 206.96, 54.97 205.3, 52.09 203.52 C49.22 201.74, 46.41 199.82, 43.71 197.78 C41.01 195.74, 38.39 193.57, 35.89 191.29 C33.39 189.01, 30.99 186.61, 28.71 184.11 C26.43 181.61, 24.26 178.99, 22.22 176.29 C20.18 173.59, 18.26 170.78, 16.48 167.91 C14.7 165.03, 13.04 162.06, 11.53 159.03 C10.02 156, 8.65 152.89, 7.43 149.74 C6.21 146.58, 5.13 143.36, 4.2 140.1 C3.27 136.85, 2.49 133.54, 1.87 130.21 C1.25 126.89, 0.78 123.52, 0.47 120.15 C0.16 116.78, 0 113.38, 0 110 C0 106.62, 0.16 103.22, 0.47 99.85 C0.78 96.48, 1.25 93.11, 1.87 89.79 C2.49 86.46, 3.27 83.15, 4.2 79.9 C5.13 76.64, 6.21 73.42, 7.43 70.26 C8.65 67.11, 10.02 64, 11.53 60.97 C13.04 57.94, 14.7 54.97, 16.48 52.09 C18.26 49.22, 20.18 46.41, 22.22 43.71 C24.26 41.01, 26.43 38.39, 28.71 35.89 C30.99 33.39, 33.39 30.99, 35.89 28.71 C38.39 26.43, 41.01 24.26, 43.71 22.22 C46.41 20.18, 49.22 18.26, 52.09 16.48 C54.97 14.7, 57.94 13.04, 60.97 11.53 C64 10.02, 67.11 8.65, 70.26 7.43 C73.42 6.21, 76.64 5.13, 79.9 4.2 C83.15 3.27, 86.46 2.49, 89.79 1.87 C93.11 1.25, 96.48 0.78, 99.85 0.47 C103.22 0.16, 106.62 0, 110 0 C113.38 0, 116.78 0.16, 120.15 0.47 C123.52 0.78, 126.89 1.25, 130.21 1.87 C133.54 2.49, 136.85 3.27, 140.1 4.2 C143.36 5.13, 146.58 6.21, 149.74 7.43 C152.89 8.65, 156 10.02, 159.03 11.53 C162.06 13.04, 165.03 14.7, 167.91 16.48 C170.78 18.26, 173.59 20.18, 176.29 22.22 C178.99 24.26, 181.61 26.43, 184.11 28.71 C186.61 30.99, 189.01 33.39, 191.29 35.89 C193.57 38.39, 195.74 41.01, 197.78 43.71 C199.82 46.41, 201.74 49.22, 203.52 52.09 C205.3 54.97, 206.96 57.94, 208.47 60.97 C209.98 64, 211.35 67.11, 212.57 70.26 C213.79 73.42, 214.87 76.64, 215.8 79.9 C216.73 83.15, 217.51 86.46, 218.13 89.79 C218.75 93.11, 219.22 96.48, 219.53 99.85 C219.84 103.22, 219.92 108.31, 220 110 C220.08 111.69, 220.08 108.31, 220 110" stroke="none" stroke-width="0" fill="#1e1e1e"></path><path d="M220 110 C220 113.38, 219.84 116.78, 219.53 120.15 C219.22 123.52, 218.75 126.89, 218.13 130.21 C217.51 133.54, 216.73 136.85, 215.8 140.1 C214.87 143.36, 213.79 146.58, 212.57 149.74 C211.35 152.89, 209.98 156, 208.47 159.03 C206.96 162.06, 205.3 165.03, 203.52 167.91 C201.74 170.78, 199.82 173.59, 197.78 176.29 C195.74 178.99, 193.57 181.61, 191.29 184.11 C189.01 186.61, 186.61 189.01, 184.11 191.29 C181.61 193.57, 178.99 195.74, 176.29 197.78 C173.59 199.82, 170.78 201.74, 167.91 203.52 C165.03 205.3, 162.06 206.96, 159.03 208.47 C156 209.98, 152.89 211.35, 149.74 212.57 C146.58 213.79, 143.36 214.87, 140.1 215.8 C136.85 216.73, 133.54 217.51, 130.21 218.13 C126.89 218.75, 123.52 219.22, 120.15 219.53 C116.78 219.84, 113.38 220, 110 220 C106.62 220, 103.22 219.84, 99.85 219.53 C96.48 219.22, 93.11 218.75, 89.79 218.13 C86.46 217.51, 83.15 216.73, 79.9 215.8 C76.64 214.87, 73.42 213.79, 70.26 212.57 C67.11 211.35, 64 209.98, 60.97 208.47 C57.94 206.96, 54.97 205.3, 52.09 203.52 C49.22 201.74, 46.41 199.82, 43.71 197.78 C41.01 195.74, 38.39 193.57, 35.89 191.29 C33.39 189.01, 30.99 186.61, 28.71 184.11 C26.43 181.61, 24.26 178.99, 22.22 176.29 C20.18 173.59, 18.26 170.78, 16.48 167.91 C14.7 165.03, 13.04 162.06, 11.53 159.03 C10.02 156, 8.65 152.89, 7.43 149.74 C6.21 146.58, 5.13 143.36, 4.2 140.1 C3.27 136.85, 2.49 133.54, 1.87 130.21 C1.25 126.89, 0.78 123.52, 0.47 120.15 C0.16 116.78, 0 113.38, 0 110 C0 106.62, 0.16 103.22, 0.47 99.85 C0.78 96.48, 1.25 93.11, 1.87 89.79 C2.49 86.46, 3.27 83.15, 4.2 79.9 C5.13 76.64, 6.21 73.42, 7.43 70.26 C8.65 67.11, 10.02 64, 11.53 60.97 C13.04 57.94, 14.7 54.97, 16.48 52.09 C18.26 49.22, 20.18 46.41, 22.22 43.71 C24.26 41.01, 26.43 38.39, 28.71 35.89 C30.99 33.39, 33.39 30.99, 35.89 28.71 C38.39 26.43, 41.01 24.26, 43.71 22.22 C46.41 20.18, 49.22 18.26, 52.09 16.48 C54.97 14.7, 57.94 13.04, 60.97 11.53 C64 10.02, 67.11 8.65, 70.26 7.43 C73.42 6.21, 76.64 5.13, 79.9 4.2 C83.15 3.27, 86.46 2.49, 89.79 1.87 C93.11 1.25, 96.48 0.78, 99.85 0.47 C103.22 0.16, 106.62 0, 110 0 C113.38 0, 116.78 0.16, 120.15 0.47 C123.52 0.78, 126.89 1.25, 130.21 1.87 C133.54 2.49, 136.85 3.27, 140.1 4.2 C143.36 5.13, 146.58 6.21, 149.74 7.43 C152.89 8.65, 156 10.02, 159.03 11.53 C162.06 13.04, 165.03 14.7, 167.91 16.48 C170.78 18.26, 173.59 20.18, 176.29 22.22 C178.99 24.26, 181.61 26.43, 184.11 28.71 C186.61 30.99, 189.01 33.39, 191.29 35.89 C193.57 38.39, 195.74 41.01, 197.78 43.71 C199.82 46.41, 201.74 49.22, 203.52 52.09 C205.3 54.97, 206.96 57.94, 208.47 60.97 C209.98 64, 211.35 67.11, 212.57 70.26 C213.79 73.42, 214.87 76.64, 215.8 79.9 C216.73 83.15, 217.51 86.46, 218.13 89.79 C218.75 93.11, 219.22 96.48, 219.53 99.85 C219.84 103.22, 219.92 108.31, 220 110 C220.08 111.69, 220.08 108.31, 220 110" stroke="transparent" stroke-width="1" fill="none"></path></g><g stroke-linecap="round" transform="translate(39.199951171875 37.599998474121094) rotate(0 80.80001831054688 82.39999389648438)"><path d="M101.25 20.75 C110.53 30.36, 119.82 39.96, 141.35 62.25 C161.6 83, 161.6 83, 141.35 103.75 C126.38 118.79, 111.42 133.83, 101.25 144.05 C81 164.8, 81 164.8, 60.75 144.05 C45.28 128.66, 29.82 113.27, 20.25 103.75 C0 83, 0 83, 20.25 62.25 C30.49 51.76, 40.73 41.27, 60.75 20.75 C81 0, 81 0, 101.25 20.75" stroke="none" stroke-width="0" fill="#ffffff"></path><path d="M101.25 20.75 C117.21 37.27, 133.17 53.78, 141.35 62.25 M101.25 20.75 C116.99 37.04, 132.72 53.32, 141.35 62.25 M141.35 62.25 C161.6 83, 161.6 83, 141.35 103.75 M141.35 62.25 C161.6 83, 161.6 83, 141.35 103.75 M141.35 103.75 C132.51 112.64, 123.66 121.52, 101.25 144.05 M141.35 103.75 C132.39 112.75, 123.44 121.75, 101.25 144.05 M101.25 144.05 C81 164.8, 81 164.8, 60.75 144.05 M101.25 144.05 C81 164.8, 81 164.8, 60.75 144.05 M60.75 144.05 C49.91 133.27, 39.08 122.48, 20.25 103.75 M60.75 144.05 C51.76 135.11, 42.78 126.17, 20.25 103.75 M20.25 103.75 C0 83, 0 83, 20.25 62.25 M20.25 103.75 C0 83, 0 83, 20.25 62.25 M20.25 62.25 C33.25 48.93, 46.24 35.61, 60.75 20.75 M20.25 62.25 C31.16 51.07, 42.07 39.89, 60.75 20.75 M60.75 20.75 C81 0, 81 0, 101.25 20.75 M60.75 20.75 C81 0, 81 0, 101.25 20.75" stroke="#ffffff" stroke-width="4" fill="none"></path></g></svg>